<?xml version="1.0" standalone="no"?>
<svg viewBox="0 0 200 200" xmlns="http://www.w3.org/2000/svg">
  <path fill="#86a0e7" opacity="0.18" d="M24.4,-31.2C38.5,-28.8,61.5,-33.7,70.5,-28.1C79.5,-22.4,74.3,-6.3,72.3,10.7C70.3,27.6,71.4,45.3,61.5,48.8C51.5,52.3,30.3,41.7,13.5,47.1C-3.2,52.5,-15.6,73.8,-27.6,77.7C-39.6,81.6,-51.3,68.1,-47.4,52.3C-43.5,36.6,-24,18.6,-25.3,4.2C-26.5,-10.3,-48.4,-21.2,-52.2,-28.4C-56,-35.7,-41.8,-39.3,-30.1,-42.8C-18.4,-46.2,-9.2,-49.4,-2,-46.2C5.1,-43.1,10.3,-33.5,24.4,-31.2Z" transform="translate(100 100)" />
</svg>
