<?xml version="1.0" standalone="no"?>
<svg viewBox="0 0 200 200" xmlns="http://www.w3.org/2000/svg">
  <path fill="#B8C4DC" d="M34.1,-50.8C46.3,-45.1,59.8,-39.3,58.7,-30.2C57.6,-21,42,-8.6,32.5,-0.7C22.9,7.1,19.4,10.5,17.3,17.4C15.1,24.4,14.2,34.9,8.9,41.7C3.5,48.5,-6.3,51.6,-17.5,51.8C-28.7,52,-41.3,49.4,-52.6,42.3C-63.9,35.2,-73.9,23.6,-67.4,14.7C-60.9,5.7,-38,-0.6,-27.6,-8.2C-17.2,-15.7,-19.3,-24.6,-16.8,-34.7C-14.3,-44.7,-7.2,-56,1.9,-59C10.9,-61.9,21.8,-56.4,34.1,-50.8Z" transform="translate(100 100)" />
</svg>
