<?xml version="1.0" standalone="no"?>
<svg viewBox="0 0 200 200" xmlns="http://www.w3.org/2000/svg">
  <path fill="#B8C4DC" d="M24.2,-31.6C34.8,-30.8,49.4,-30,54.6,-23.5C59.9,-17,55.9,-4.8,50.1,4.3C44.3,13.4,36.7,19.3,31.2,28.7C25.7,38.1,22.2,51,15.2,54.4C8.1,57.7,-2.6,51.4,-13.7,47.6C-24.7,43.9,-36.2,42.6,-40.8,36.1C-45.4,29.5,-43.2,17.7,-45.1,6.3C-47,-5.1,-53.2,-16.1,-52,-25.8C-50.7,-35.4,-42,-43.7,-32.2,-44.9C-22.3,-46,-11.1,-40.1,-2.2,-36.7C6.8,-33.4,13.5,-32.5,24.2,-31.6Z" transform="translate(100 100)" />
</svg>
