<?xml version="1.0" standalone="no"?>
<svg viewBox="0 0 200 200" xmlns="http://www.w3.org/2000/svg">
  <path fill="#86a0e7" opacity="0.18" d="M31.6,-47.9C36.1,-40.2,31.6,-24.5,39.5,-10.5C47.3,3.6,67.4,16,66.4,22.3C65.4,28.6,43.2,28.7,28.6,32.6C14,36.5,7,44.2,-5.6,51.9C-18.2,59.6,-36.4,67.4,-46.7,62.1C-57.1,56.8,-59.6,38.5,-54.6,24.6C-49.6,10.8,-37.1,1.4,-34.9,-13.2C-32.7,-27.8,-40.8,-47.6,-36.7,-55.4C-32.6,-63.3,-16.3,-59.2,-1.4,-57.3C13.5,-55.4,27,-55.6,31.6,-47.9Z" transform="translate(100 100)" />
</svg>
